# xmcd
#
# Track frame offsets: 
#        150
#        28911
#        51561
#        78857
#        121896
#
# Disc length: 1994 seconds
#
# Revision: 4
# Processed by: cddbd v1.5.2PL0 Copyright (c) Steve Scherf et al.
# Submitted via: ExactAudioCopyFreeDBPlugin 1.0
#
DISCID=3c07c805
DTITLE=Sonny Rollins - Worktime
DYEAR=1955
DGENRE=Jazz
TTITLE0=There's no business like show business
TTITLE1=Paradox
TTITLE2=Raincheck
TTITLE3=There are such things
TTITLE4=It's all right with me
EXTD=YEAR: 1955
EXTT0=
EXTT1=
EXTT2=
EXTT3=
EXTT4=
PLAYORDER=
